# xmcd
#
# Track frame offsets:
#	150
#	5630
#	24272
#	38712
#	50577
#	72182
#	83227
#	99870
#	114402
#	132465
#	144855
#	160725
#	186955
#
# Disc length: 2584 seconds
#
# Revision: 1
# Processed by: cddbd v1.5.2PL0 Copyright (c) Steve Scherf et al.
# Submitted via: audiograbber 1.83.01
#
DISCID=a10a160d
DTITLE=Catfish Willie - Gone Fishin'
DYEAR=1994
DGENRE=Country swing
TTITLE0=Old Brown Suitcase
TTITLE1=Wake Me Up (When the Sun Comes Up)
TTITLE2=The Preacher and the Kite
TTITLE3=The Ballad of Cowboy Bill
TTITLE4=Do You Glow in the Dark?
TTITLE5=Your Love
TTITLE6=Nat'ral Appeal
TTITLE7=Bovine Blues
TTITLE8=The Great Canadian Lottery Dream Song
TTITLE9=Mulroney the Meecher
TTITLE10=High Ball, Fly Ball
TTITLE11=Raising the Flag
TTITLE12=Old Brown Suitcase (Epilogue)
EXTD=
EXTT0=
EXTT1=
EXTT2=
EXTT3=
EXTT4=
EXTT5=
EXTT6=
EXTT7=
EXTT8=
EXTT9=
EXTT10=
EXTT11=
EXTT12=
PLAYORDER=
